<svg id="b27d8054-6181-4b11-a45e-dddfaebe6041" data-name="Layer 1" xmlns="http://www.w3.org/2000/svg" viewBox="0 0 2884 1267"><defs><style>.a1eaed54-4fb7-4f84-aade-ed1499e278e5{fill:#fff;}</style></defs><title>filmfinder</title><path class="a1eaed54-4fb7-4f84-aade-ed1499e278e5" d="M467.34,746.52c.41,2,.6,3.29,1,4.54q47.83,165.08,95.6,330.18c1.2,4.14,3,5.32,7.18,5.32q283.24-.15,566.49-.1c1.75,0,3.5-.18,5.35-.28.1-1.36.21-2.17.21-3,0-47.83-.05-95.66.11-143.5,0-3.9-2.15-4.62-4.86-5.63Q931.56,856.81,724.7,779.59c-3.58-1.33-4.65-3-4.64-6.77q.18-99.49,0-199c0-4.46,1.53-6.25,5.39-7.9q206.4-88.59,412.73-177.31c3.69-1.59,5.12-3.4,5.1-7.6-.16-53.83-.1-107.66-.1-161.49v-5.37H119.61v871.91a17.92,17.92,0,0,0,2.37.36c37,0,74,0,111,.15,3.59,0,4.05-2.08,4.74-4.48q43.11-148.78,86.21-297.57c3.6-12.41,7.18-24.81,11-38.12H308.41V723.58h190.2v22.94Zm1805.82,70.07v-6.92c0-69-.19-138,.17-207a185.19,185.19,0,0,1,3.89-35.65c4.6-22.65,16.83-39.83,39.57-47.48,31.07-10.45,61.72,6.9,66.75,38.08,1.77,10.94,1.89,22.23,1.91,33.37q.24,109.74.09,219.49c0,1.94.16,3.88.25,5.94h159v-6.82c.06-71.16,0-142.33.25-213.49,0-16.93,2.75-33.44,10.53-48.85,16.2-32.06,67.32-44.14,92.33-7,7.92,11.75,9.83,25,9.86,38.6q.2,115.76.07,231.5c0,2.07.18,4.15.27,6.2h159v-5.63q0-130.24,0-260.49a239.71,239.71,0,0,0-8.18-63.72c-12.23-44.39-39.6-74.76-84.23-87.35-38.11-10.76-76.48-9.18-114.11,3.39-22.28,7.44-40.35,21.73-57.27,37.47-7.5,7-14.38,14.63-21.35,21.78-1-.53-1.18-.57-1.25-.7-.79-1.27-1.56-2.54-2.31-3.83-16.12-27.78-37.93-48.78-69.49-58.06-19.55-5.75-39.62-6.95-59.86-6.55-33.88.65-65.6,8.32-93.54,28.53-14.52,10.51-27.31,22.86-39.2,36.21-1.11,1.24-2.28,2.42-4.43,4.7v-60H2114.21V816.59Zm-765-573.43c-35.1-2.8-69.56-6-104.09-8.16-26-1.61-52.06-1.2-77.5,5.08-39.78,9.81-68.12,32.55-79.13,73.43-5.39,20-7.73,40.54-8.4,61.22-.29,8.92,0,17.85,0,27.35h-59v116.2h58.85v297.9H1398.2v-298h75.52V401.7h-76c.73-11.54.84-22.39,2.22-33.07,2.64-20.32,14.87-31.9,35.37-32.37,14.25-.33,28.55,1.39,42.81,2.33,4.06.27,8.08,1,12.33,1.56C1496.32,307.93,1502.1,276.36,1508.18,243.16Zm328.12,1.55V816.53H1995V244.71ZM1554.51,402.16V816.55h158.25V402.16Zm-1023.43,684c-.31-1.34-.47-2.3-.74-3.23q-48.15-166.25-96.24-332.5c-1-3.35-2.64-3.95-5.67-3.94-18.16.09-36.32.15-54.48-.06-3.93,0-5.28,1.39-6.34,5Q320,916,272.21,1080.55c-.52,1.81-.84,3.68-1.28,5.6Zm2101.07,7.1v-5c0-22.33-.26-44.66.16-67a63.75,63.75,0,0,1,3.5-20c3.13-8.78,12.57-13.11,21.58-11.35,7.73,1.51,12.89,8.19,13.51,17.57.12,1.82.11,3.66.11,5.49v80h55.46v-6.36c0-22.16-.25-44.33.16-66.48a60.52,60.52,0,0,1,3.49-19.43c3.1-8.42,12.15-12.48,20.84-10.85,7.61,1.43,13.42,8.52,14.08,17.27.14,1.82.14,3.66.14,5.49V1093h55.64v-6.38c0-23.33.07-46.66,0-70,0-9-.12-18-.85-26.94-1.74-21.35-13.3-36.77-32-41.26-21.42-5.16-41.39-2.2-58,13.79-2.69,2.59-5.43,5.13-8.47,8-9.66-19-26-24.3-45.26-24s-34.6,8.26-47.78,22.53V949.94h-51.21v143.31ZM1744.29,962.64c-1.66-1.37-2.68-2.18-3.67-3-26.67-22.85-69.74-15.85-87.85,14.28-6.41,10.66-9.22,22.39-10.25,34.62-1.73,20.46.65,40.19,10.44,58.63,18.07,34,62.07,40.45,89,13,1.93-2,3.76-4,6.6-7.09v20.19h51.21V895.35h-55.53ZM1554.48,352.45h158.29V244.86a22.46,22.46,0,0,0-2.36-.29q-76,0-152-.1c-3.76,0-4.31,1.57-4.3,4.79q.13,49.5.07,99C1554.2,349.55,1554.37,350.85,1554.48,352.45Zm61,740.79a6.94,6.94,0,0,0,.51-1.45c0-32.82.38-65.66-.34-98.47-.34-15.58-5.5-29.69-19.31-39.25-15.92-11-50-11.51-68.61,5.95-3.83,3.59-7.5,7.35-12,11.73,0-6.24-.28-11.68.09-17.08.29-4.33-1.41-5.29-5.42-5.22-12.82.22-25.66.08-38.49.08h-7.48v143.56h55v-5.79c0-21.33-.32-42.66.17-64a72.46,72.46,0,0,1,3.8-21.92c3-8.72,12.49-12.83,22.22-11.34,8.3,1.28,13.22,6.87,14.44,16.71a91,91,0,0,1,.72,11c.07,23.16,0,46.32,0,69.48v6ZM1883.28,1035h110.33c-.57-9-.73-17.5-1.69-25.88-3.38-29.58-21.51-51.64-48.77-58.73-20.08-5.23-40.53-6-60.82-1.23-24.75,5.83-42.23,20.58-51,44.66-5.15,14-5.43,28.66-3.25,43.37,4.08,27.61,24.6,50.75,51,56.49a148.64,148.64,0,0,0,66.35-.76c20.64-4.86,34.38-18.4,44.77-36.67-1.34-.19-2.12-.33-2.91-.4-15.58-1.46-31.17-2.83-46.74-4.45-3.08-.33-5.16.08-7.31,2.61-7.74,9.13-17.88,11.91-29.29,9.38C1891.83,1060.74,1884.87,1051.09,1883.28,1035Zm583.06-88.89c-2.63.19-6.62.47-10.6.77-39,3-66.32,30.16-70.44,65.66-3.55,30.63,10.35,59.59,37.4,74.26,16.66,9,34.76,10.86,53.33,9.67,17.66-1.13,34.19-5.69,48.06-17.23,21.87-18.19,28.73-42.24,25.35-69.5-3.16-25.47-16.5-44.23-39.91-55.32C2496.32,948.19,2482.1,946.62,2466.34,946.14ZM2371.83,1043c-2.3-.35-4.25-.73-6.22-.94-13.57-1.47-27.16-2.71-40.69-4.48-4-.53-5.68.14-7.3,4.07-5.25,12.77-15.75,18.48-30.52,17.43-11.52-.83-21.11-8.84-24.44-21.06a57.53,57.53,0,0,1,1-33.94c4.12-12.34,14-19.82,27.07-19.83,11.56,0,21.25,2.79,26.45,17.61.1.28.4.5.7.86l51.36-7c-6.62-21.07-18.83-36.74-39.92-43.65a124.77,124.77,0,0,0-74.29-1.31c-22.35,6.41-37.66,21.39-45.39,43.48-4.3,12.31-4.3,25.21-3.51,38,1.69,27.46,19,50.15,45.19,58.83,19.16,6.36,38.94,6.68,58.79,4.7C2341.15,1092.79,2364.12,1073.16,2371.83,1043ZM1259.06,990v103.11h55.51V989.91h26V949.43h-25.66c-1.88-17.56,3.44-23.32,20-22.41,3.76.2,7.49.72,11.47,1.12,1.1-5.88,2.13-11.24,3.1-16.62s1.87-10.7,2.79-16c-12-3.23-46.15-4.92-57.57-3-21.86,3.75-32.31,14.76-34.69,36.8-.71,6.55-1,13.15-1.54,20.43H1239V990ZM2132.4,954c-11.24-6-22.47-9.25-34.85-7-13.34,2.44-19.72,12.83-26.89,23V949.84h-51.4v143.23h55.21c0-1.89,0-3.37,0-4.86.11-17,.12-34,.38-51,.18-11.85,1.07-23.66,6-34.69s13.85-15.33,25.63-12.22c2.86.76,5.65,1.81,8.9,2.86C2121,980.25,2126.55,967.49,2132.4,954Zm-758-4.2v143.35h54.33V949.84Zm746.07,88.42v54.8h58.41v-54.8ZM1374.24,932.1h54.63V895.28h-54.63Z"/><path d="M467.34,746.52h31.27V723.58H308.41v22.83H335c-3.86,13.31-7.44,25.71-11,38.12q-43.1,148.79-86.21,297.57c-.69,2.4-1.15,4.49-4.74,4.48-37-.17-74-.12-111-.15a17.92,17.92,0,0,1-2.37-.36V214.16H1143.15v5.37c0,53.83-.06,107.66.1,161.49,0,4.2-1.41,6-5.1,7.6Q931.76,477.21,725.42,565.93c-3.86,1.65-5.4,3.44-5.39,7.9q.26,99.49,0,199c0,3.76,1.06,5.44,4.64,6.77q206.88,77.13,413.69,154.47c2.71,1,4.87,1.73,4.86,5.63-.16,47.84-.1,95.67-.11,143.5,0,.82-.11,1.63-.21,3-1.85.1-3.6.28-5.35.28q-283.24,0-566.49.1c-4.17,0-6-1.18-7.18-5.32q-47.67-165.13-95.6-330.18C467.94,749.81,467.75,748.5,467.34,746.52Zm173.2-284.17c0-63.5-51.88-115.61-114.15-116.57-62.6-1-118.83,48.64-118.88,116.82-.05,64,52.22,116.27,115.86,116.25C588.38,578.83,640.58,526.94,640.54,462.35ZM399,460.45C399,396.64,347.21,344,284.34,344c-66-.05-118.39,51.49-118.35,116.47C166,524.6,218.28,576.92,282.37,577A116.34,116.34,0,0,0,399,460.45ZM274.42,710.19H531.93V629.83H274.42Zm402.8,59.33V570.8c-1.15.45-1.92.67-2.62,1Q613.81,603.15,553,634.41c-2.59,1.33-3,3-3,5.5.08,19.83.12,39.66,0,59.49,0,3.1,1,4.62,3.71,6q48.15,24.79,96.18,49.84ZM498.58,596.22H308.38v22.42h190.2ZM704.74,772V571.48H693.21V772Z"/><path d="M2273.16,816.59H2114.21V402.34H2261.9v60c2.15-2.28,3.32-3.46,4.43-4.7,11.89-13.35,24.68-25.7,39.2-36.21,27.94-20.21,59.66-27.88,93.54-28.53,20.24-.4,40.31.8,59.86,6.55,31.56,9.28,53.37,30.28,69.49,58.06.75,1.29,1.52,2.56,2.31,3.83.07.13.28.17,1.25.7,7-7.15,13.85-14.8,21.35-21.78,16.92-15.74,35-30,57.27-37.47,37.63-12.57,76-14.15,114.11-3.39,44.63,12.59,72,43,84.23,87.35a239.71,239.71,0,0,1,8.18,63.72q.12,130.25,0,260.49v5.63h-159c-.09-2-.27-4.13-.27-6.2q0-115.76-.07-231.5c0-13.59-1.94-26.85-9.86-38.6-25-37.11-76.13-25-92.33,7-7.78,15.41-10.48,31.92-10.53,48.85-.24,71.16-.19,142.33-.25,213.49v6.82h-159c-.09-2.06-.25-4-.25-5.94q0-109.74-.09-219.49c0-11.14-.14-22.43-1.91-33.37-5-31.18-35.68-48.53-66.75-38.08-22.74,7.65-35,24.83-39.57,47.48a185.19,185.19,0,0,0-3.89,35.65c-.36,69-.17,138-.17,207Z"/><path d="M1508.18,243.16c-6.08,33.2-11.86,64.77-17.75,97-4.25-.55-8.27-1.29-12.33-1.56-14.26-.94-28.56-2.66-42.81-2.33-20.5.47-32.73,12.05-35.37,32.37-1.38,10.68-1.49,21.53-2.22,33.07h76V518.17H1398.2v298H1238.84V518.28H1180V402.08h59c0-9.5-.24-18.43,0-27.35.67-20.68,3-41.21,8.4-61.22,11-40.88,39.35-63.62,79.13-73.43,25.44-6.28,51.53-6.69,77.5-5.08C1438.62,237.15,1473.08,240.36,1508.18,243.16Z"/><path d="M1836.3,244.71H1995V816.53H1836.3Z"/><path d="M1554.51,402.16h158.25V816.55H1554.51Z"/><path d="M531.08,1086.15H270.93c.44-1.92.76-3.79,1.28-5.6q47.73-164.55,95.4-329.1c1.06-3.64,2.41-5.08,6.34-5,18.16.21,36.32.15,54.48.06,3,0,4.7.59,5.67,3.94q48,166.29,96.24,332.5C530.61,1083.85,530.77,1084.81,531.08,1086.15Z"/><path d="M2632.15,1093.25h-54.92V949.94h51.21v18.78c13.18-14.27,28.62-22.27,47.78-22.53s35.6,5.06,45.26,24c3-2.87,5.78-5.41,8.47-8,16.62-16,36.59-19,58-13.79,18.67,4.49,30.23,19.91,32,41.26.73,8.95.81,18,.85,26.94.11,23.33,0,46.66,0,70V1093h-55.64v-80.32c0-1.83,0-3.67-.14-5.49-.66-8.75-6.47-15.84-14.08-17.27-8.69-1.63-17.74,2.43-20.84,10.85a60.52,60.52,0,0,0-3.49,19.43c-.41,22.15-.16,44.32-.16,66.48V1093H2671v-80c0-1.83,0-3.67-.11-5.49-.62-9.38-5.78-16.06-13.51-17.57-9-1.76-18.45,2.57-21.58,11.35a63.75,63.75,0,0,0-3.5,20c-.42,22.32-.16,44.65-.16,67Z"/><path d="M1744.29,962.64V895.35h55.53V1093.2h-51.21V1073c-2.84,3-4.67,5.12-6.6,7.09-27,27.49-71,21.05-89-13-9.79-18.44-12.17-38.17-10.44-58.63,1-12.23,3.84-24,10.25-34.62,18.11-30.13,61.18-37.13,87.85-14.28C1741.61,960.46,1742.63,961.27,1744.29,962.64Zm1.8,58.05c-1.8-6.63-2.82-14.18-5.89-20.78-4-8.68-11.93-12.83-21.63-12.23-9.55.59-15.73,6.21-18.54,15a60.87,60.87,0,0,0,0,38.25c3.1,9.39,10.78,15.06,19.48,15.25,10.07.22,18.37-4.67,21.79-14.21C1743.62,1035.49,1744.41,1028.47,1746.09,1020.69Z"/><path d="M1554.48,352.45c-.11-1.6-.28-2.9-.28-4.2q0-49.49-.07-99c0-3.22.54-4.8,4.3-4.79q76,.17,152,.1a22.46,22.46,0,0,1,2.36.29V352.45Z"/><path d="M1615.53,1093.24h-54.68v-6c0-23.16,0-46.32,0-69.48a91,91,0,0,0-.72-11c-1.22-9.84-6.14-15.43-14.44-16.71-9.73-1.49-19.18,2.62-22.22,11.34a72.46,72.46,0,0,0-3.8,21.92c-.49,21.32-.17,42.65-.17,64v5.79h-55V949.53H1472c12.83,0,25.67.14,38.49-.08,4-.07,5.71.89,5.42,5.22-.37,5.4-.09,10.84-.09,17.08,4.46-4.38,8.13-8.14,12-11.73,18.59-17.46,52.69-17,68.61-5.95,13.81,9.56,19,23.67,19.31,39.25.72,32.81.31,65.65.34,98.47A6.94,6.94,0,0,1,1615.53,1093.24Z"/><path d="M1883.28,1035c1.59,16.06,8.55,25.71,20.66,28.39,11.41,2.53,21.55-.25,29.29-9.38,2.15-2.53,4.23-2.94,7.31-2.61,15.57,1.62,31.16,3,46.74,4.45.79.07,1.57.21,2.91.4-10.39,18.27-24.13,31.81-44.77,36.67a148.64,148.64,0,0,1-66.35.76c-26.44-5.74-47-28.88-51-56.49-2.18-14.71-1.9-29.33,3.25-43.37,8.82-24.08,26.3-38.83,51-44.66,20.29-4.78,40.74-4,60.82,1.23,27.26,7.09,45.39,29.15,48.77,58.73,1,8.38,1.12,16.84,1.69,25.88Zm53.38-26.83c-.65-18.07-10.44-29-25.88-29.2s-26.19,11.3-27.13,29.2Z"/><path d="M2466.34,946.14c15.76.48,30,2.05,43.19,8.31,23.41,11.09,36.75,29.85,39.91,55.32,3.38,27.26-3.48,51.31-25.35,69.5-13.87,11.54-30.4,16.1-48.06,17.23-18.57,1.19-36.67-.65-53.33-9.67-27-14.67-40.95-43.63-37.4-74.26,4.12-35.5,31.4-62.67,70.44-65.66C2459.72,946.61,2463.71,946.33,2466.34,946.14Zm29.26,75c-1.24-6.43-1.89-12.95-3.83-19.06a25.16,25.16,0,0,0-23.39-18A25.49,25.49,0,0,0,2444,1001a59,59,0,0,0,.05,42c4,10.85,13.42,16.56,25,16.23,10.53-.29,19.55-6.94,22.76-17.82C2493.73,1034.88,2494.37,1028,2495.6,1021.18Z"/><path d="M2371.83,1043c-7.71,30.13-30.68,49.76-61.74,52.84-19.85,2-39.63,1.66-58.79-4.7-26.16-8.68-43.5-31.37-45.19-58.83-.79-12.84-.79-25.74,3.51-38,7.73-22.09,23-37.07,45.39-43.48a124.77,124.77,0,0,1,74.29,1.31c21.09,6.91,33.3,22.58,39.92,43.65l-51.36,7c-.3-.36-.6-.58-.7-.86-5.2-14.82-14.89-17.62-26.45-17.61-13.07,0-22.95,7.49-27.07,19.83a57.53,57.53,0,0,0-1,33.94c3.33,12.22,12.92,20.23,24.44,21.06,14.77,1.05,25.27-4.66,30.52-17.43,1.62-3.93,3.31-4.6,7.3-4.07,13.53,1.77,27.12,3,40.69,4.48C2367.58,1042.3,2369.53,1042.68,2371.83,1043Z"/><path d="M1259.06,990H1239V949.79h19.56c.54-7.28.83-13.88,1.54-20.43,2.38-22,12.83-33.05,34.69-36.8,11.42-2,45.58-.27,57.57,3-.92,5.3-1.82,10.65-2.79,16s-2,10.74-3.1,16.62c-4-.4-7.71-.92-11.47-1.12-16.61-.91-21.93,4.85-20,22.41h25.66v40.48h-26v103.16h-55.51Z"/><path d="M2132.4,954c-5.85,13.45-11.41,26.21-17.05,39.17-3.25-1.05-6-2.1-8.9-2.86-11.78-3.11-20.67,1-25.63,12.22s-5.79,22.84-6,34.69c-.26,17-.27,34-.38,51,0,1.49,0,3,0,4.86h-55.21V949.84h51.4v20.24c7.17-10.19,13.55-20.58,26.89-23C2109.93,944.79,2121.16,948,2132.4,954Z"/><path d="M1374.4,949.84h54.33v143.35H1374.4Z"/><path d="M2120.47,1038.26h58.41v54.8h-58.41Z"/><path d="M1374.24,932.1V895.28h54.63V932.1Z"/><path class="a1eaed54-4fb7-4f84-aade-ed1499e278e5" d="M640.54,462.35c0,64.59-52.16,116.48-117.17,116.5-63.64,0-115.91-52.25-115.86-116.25.05-68.18,56.28-117.78,118.88-116.82C588.66,346.74,640.51,398.85,640.54,462.35ZM522.27,569.15a32.81,32.81,0,0,0,.12-65.62c-18.14,0-33.47,15.23-33.19,33.05A33.09,33.09,0,0,0,522.27,569.15Zm-67.94-70.77c18.25-.66,32.59-15.58,32.14-33.44-.49-19-15.73-32.85-35.32-32.07-17.37.68-31,16.23-30.28,34.49C421.57,484.67,437,499,454.33,498.38Zm69.2-75.23a32.81,32.81,0,1,0-32.36-33.25C490.79,407.66,505.61,422.89,523.53,423.15Zm74.35-3.3a32.65,32.65,0,0,0-33,32.43,32.79,32.79,0,1,0,65.58.33A32.54,32.54,0,0,0,597.88,419.85Zm-92,42.75a18.12,18.12,0,1,0,17.84-18.42A18.22,18.22,0,0,0,505.88,462.6Z"/><path class="a1eaed54-4fb7-4f84-aade-ed1499e278e5" d="M399,460.45A116.34,116.34,0,0,1,282.37,577C218.28,576.92,166,524.6,166,460.46c0-65,52.32-116.52,118.35-116.47C347.21,344,399,396.64,399,460.45Zm-184.73-3.6a32.65,32.65,0,0,0-32.67,32.73,33,33,0,0,0,32.82,32.8c18.15.15,32.79-14.7,32.72-33.19C247.08,471,232.68,456.82,214.28,456.85ZM381,430.9a32.9,32.9,0,1,0-65.8-.2c-.07,17.77,14.9,32.68,32.88,32.77A32.83,32.83,0,0,0,381,430.9ZM217.85,397.64c0,18.43,14.39,32.76,33,32.84,17.74.07,32.67-15.08,32.54-33a33,33,0,0,0-33-32.62A32.71,32.71,0,0,0,217.85,397.64Zm104,158.51a32.78,32.78,0,1,0-32.64-32.84C288.93,541.16,303.71,556,321.81,556.15Zm-57.26-96a18.2,18.2,0,0,0,17.82,18.42,18.21,18.21,0,0,0,.5-36.42C273.18,441.93,264.73,450.23,264.55,460.18Z"/><path class="a1eaed54-4fb7-4f84-aade-ed1499e278e5" d="M274.42,710.19V629.83H531.93v80.36Z"/><path class="a1eaed54-4fb7-4f84-aade-ed1499e278e5" d="M677.22,769.52l-27.41-14.24q-48.07-25-96.18-49.84c-2.75-1.42-3.74-2.94-3.71-6,.15-19.83.11-39.66,0-59.49,0-2.55.44-4.17,3-5.5q60.87-31.17,121.62-62.58c.7-.36,1.47-.58,2.62-1Z"/><path class="a1eaed54-4fb7-4f84-aade-ed1499e278e5" d="M498.58,596.22v22.42H308.38V596.22Z"/><path class="a1eaed54-4fb7-4f84-aade-ed1499e278e5" d="M704.74,772H693.21V571.48h11.53Z"/><path class="a1eaed54-4fb7-4f84-aade-ed1499e278e5" d="M1746.09,1020.69c-1.68,7.78-2.47,14.8-4.78,21.27-3.42,9.54-11.72,14.43-21.79,14.21-8.7-.19-16.38-5.86-19.48-15.25a60.87,60.87,0,0,1,0-38.25c2.81-8.78,9-14.4,18.54-15,9.7-.6,17.6,3.55,21.63,12.23C1743.27,1006.51,1744.29,1014.06,1746.09,1020.69Z"/><path class="a1eaed54-4fb7-4f84-aade-ed1499e278e5" d="M1936.66,1008.2h-53c.94-17.9,11.77-29.43,27.13-29.2S1936,990.13,1936.66,1008.2Z"/><path class="a1eaed54-4fb7-4f84-aade-ed1499e278e5" d="M2495.6,1021.18c-1.23,6.85-1.87,13.7-3.78,20.17-3.21,10.88-12.23,17.53-22.76,17.82-11.55.33-20.94-5.38-25-16.23a59,59,0,0,1-.05-42,25.49,25.49,0,0,1,24.34-16.78,25.16,25.16,0,0,1,23.39,18C2493.71,1008.23,2494.36,1014.75,2495.6,1021.18Z"/><path d="M522.27,569.15a33.09,33.09,0,0,1-33.07-32.57c-.28-17.82,15.05-33.09,33.19-33.05a32.81,32.81,0,0,1-.12,65.62Z"/><path d="M454.33,498.38c-17.29.62-32.76-13.71-33.46-31-.74-18.26,12.91-33.81,30.28-34.49,19.59-.78,34.83,13.06,35.32,32.07C486.92,482.8,472.58,497.72,454.33,498.38Z"/><path d="M523.53,423.15c-17.92-.26-32.74-15.49-32.36-33.25a32.92,32.92,0,1,1,32.36,33.25Z"/><path d="M597.88,419.85a32.81,32.81,0,0,1-.07,65.61,33,33,0,0,1-32.91-33.18A32.65,32.65,0,0,1,597.88,419.85Z"/><path d="M505.88,462.6a18.12,18.12,0,1,1,18.39,17.85A18.21,18.21,0,0,1,505.88,462.6Z"/><path d="M214.28,456.85c18.4,0,32.8,14.14,32.87,32.34.07,18.49-14.57,33.34-32.72,33.19a33,33,0,0,1-32.82-32.8A32.65,32.65,0,0,1,214.28,456.85Z"/><path d="M381,430.9a32.83,32.83,0,0,1-32.92,32.57c-18-.09-32.95-15-32.88-32.77a32.9,32.9,0,1,1,65.8.2Z"/><path d="M217.85,397.64a32.71,32.71,0,0,1,32.6-32.8,33,33,0,0,1,33,32.62c.13,17.94-14.8,33.09-32.54,33C232.24,430.4,217.83,416.07,217.85,397.64Z"/><path d="M321.81,556.15c-18.1-.12-32.88-15-32.64-32.84a32.91,32.91,0,1,1,32.64,32.84Z"/><path d="M264.55,460.18c.18-9.95,8.63-18.25,18.32-18a18.21,18.21,0,0,1-.5,36.42A18.2,18.2,0,0,1,264.55,460.18Z"/></svg>